<svg id="Layer_1" data-name="Layer 1" xmlns="http://www.w3.org/2000/svg" viewBox="0 0 30.66 30.66"><defs><style>.cls-1{fill:#eaecec;}.cls-2{fill:#d3158a;}.cls-3{fill:#5b2d7f;}</style></defs><path class="cls-1" d="M-33.62-13.07" transform="translate(-4.35 -5.05)"/><path class="cls-1" d="M33,20.38h2A15.34,15.34,0,0,0,19.68,5.05v2A13.35,13.35,0,0,1,33,20.38Z" transform="translate(-4.35 -5.05)"/><path class="cls-2" d="M19.68,7.05v-2h-.42A15.35,15.35,0,0,0,4.36,19.8c0,.19,0,.38,0,.58h2v-.26A13.34,13.34,0,0,1,19.68,7.05Z" transform="translate(-4.35 -5.05)"/><path class="cls-3" d="M33,20.38h0A13.35,13.35,0,0,1,19.68,33.71v2l.61,0A15.34,15.34,0,0,0,35,20.69c0-.1,0-.21,0-.31H33Z" transform="translate(-4.35 -5.05)"/><path class="cls-1" d="M6.35,20.38h-2A15.34,15.34,0,0,0,19.68,35.71v-2A13.35,13.35,0,0,1,6.35,20.38Z" transform="translate(-4.35 -5.05)"/></svg>